<svg width="64" height="64" viewBox="0 0 64 64" fill="none" xmlns="http://www.w3.org/2000/svg">
  <!-- Main cloud -->
  <path d="M16 34c-4.418 0-8-3.582-8-8s3.582-8 8-8c.365 0 .724.025 1.074.074C18.963 14.208 22.766 12 27 12c5.523 0 10 4.477 10 10 0 .342-.017.68-.05 1.015C38.23 22.366 39.58 22 41 22c4.418 0 8 3.582 8 8s-3.582 8-8 8H16z" fill="#42A5F5"/>
  
  <!-- Cloud shadow -->
  <path d="M16 34c-4.418 0-8-3.582-8-8s3.582-8 8-8c.365 0 .724.025 1.074.074C18.963 14.208 22.766 12 27 12c5.523 0 10 4.477 10 10 0 .342-.017.68-.05 1.015C38.23 22.366 39.58 22 41 22c4.418 0 8 3.582 8 8s-3.582 8-8 8H16z" fill="#1976D2" opacity="0.3"/>
  
  <!-- Rain drops -->
  <g stroke="#42A5F5" stroke-width="2.5" stroke-linecap="round">
    <line x1="20" y1="40" x2="18" y2="50"/>
    <line x1="26" y1="42" x2="24" y2="52"/>
    <line x1="32" y1="40" x2="30" y2="50"/>
    <line x1="38" y1="42" x2="36" y2="52"/>
    <line x1="44" y1="40" x2="42" y2="50"/>
  </g>
  
  <!-- Secondary rain drops -->
  <g stroke="#42A5F5" stroke-width="1.5" stroke-linecap="round" opacity="0.6">
    <line x1="23" y1="44" x2="21.5" y2="52"/>
    <line x1="29" y1="46" x2="27.5" y2="54"/>
    <line x1="35" y1="44" x2="33.5" y2="52"/>
    <line x1="41" y1="46" x2="39.5" y2="54"/>
  </g>
  
  <!-- Cloud highlight -->
  <ellipse cx="25" cy="20" rx="8" ry="4" fill="#FFFFFF" opacity="0.4"/>
</svg>